<svg width="40" height="33" viewBox="0 0 40 33" fill="none" xmlns="http://www.w3.org/2000/svg">
<path d="M39.3091 4.33382C37.8317 4.97474 36.2694 5.39843 34.6706 5.59171C36.3573 4.58406 37.6213 2.99884 38.2281 1.13013C36.643 2.07367 34.908 2.73845 33.0982 3.09558C31.8886 1.78378 30.2778 0.910577 28.5184 0.612919C26.759 0.315261 24.9505 0.609984 23.3767 1.45087C21.8029 2.29175 20.5526 3.63123 19.8221 5.25922C19.0915 6.88722 18.922 8.71165 19.3401 10.4464C16.1353 10.2843 13.0004 9.4498 10.1391 7.99715C7.27782 6.5445 4.75413 4.50617 2.73198 2.01458C2.02272 3.25315 1.65004 4.6558 1.65098 6.08307C1.64847 7.40854 1.97374 8.71406 2.59785 9.8834C3.22196 11.0527 4.12552 12.0496 5.22811 12.7853C3.94659 12.7504 2.69245 12.4065 1.57236 11.7829V11.8812C1.58197 13.7383 2.23274 15.5351 3.41461 16.9677C4.59648 18.4003 6.23689 19.3806 8.05836 19.743C7.3572 19.9564 6.62923 20.0689 5.89636 20.0771C5.38906 20.0712 4.88302 20.0252 4.38296 19.9395C4.90166 21.5371 5.90545 22.9332 7.25464 23.9336C8.60383 24.9341 10.2313 25.4891 11.9107 25.5214C9.0749 27.7527 5.5738 28.9705 1.96545 28.9806C1.30847 28.9828 0.652011 28.9434 0 28.8627C3.6841 31.2414 7.97741 32.5041 12.3627 32.4988C15.3889 32.5302 18.391 31.9583 21.1937 30.8165C23.9964 29.6747 26.5435 27.9859 28.6862 25.8487C30.8289 23.7114 32.5243 21.1687 33.6732 18.3689C34.8222 15.5692 35.4018 12.5685 35.3782 9.54227C35.3782 9.20814 35.3782 8.85436 35.3782 8.50058C36.9205 7.35042 38.2506 5.94043 39.3091 4.33382Z" fill="#0B091B"/>
</svg>
