<svg width="39" height="39" viewBox="0 0 39 39" fill="none" xmlns="http://www.w3.org/2000/svg">
<path d="M19.5 14.664C18.5435 14.664 17.6085 14.9476 16.8133 15.479C16.018 16.0104 15.3981 16.7657 15.0321 17.6493C14.6661 18.533 14.5703 19.5054 14.7569 20.4435C14.9435 21.3815 15.4041 22.2432 16.0804 22.9196C16.7568 23.5959 17.6185 24.0565 18.5565 24.2431C19.4946 24.4297 20.467 24.3339 21.3507 23.9679C22.2343 23.6019 22.9896 22.982 23.521 22.1867C24.0524 21.3915 24.336 20.4565 24.336 19.5C24.336 18.8649 24.2109 18.2361 23.9679 17.6493C23.7249 17.0626 23.3686 16.5295 22.9196 16.0804C22.4705 15.6314 21.9374 15.2752 21.3507 15.0321C20.7639 14.7891 20.1351 14.664 19.5 14.664ZM38.8635 9.8865C38.8532 8.38063 38.5759 6.88851 38.0445 5.4795C37.6531 4.44846 37.0475 3.51213 36.2677 2.73231C35.4879 1.95249 34.5515 1.3469 33.5205 0.9555C32.1115 0.424054 30.6194 0.146759 29.1135 0.1365C26.598 -1.30758e-07 25.857 0 19.5 0C13.143 0 12.402 -1.30758e-07 9.8865 0.1365C8.38063 0.146759 6.88851 0.424054 5.4795 0.9555C4.44846 1.3469 3.51213 1.95249 2.73231 2.73231C1.95249 3.51213 1.3469 4.44846 0.9555 5.4795C0.424054 6.88851 0.146759 8.38063 0.1365 9.8865C-1.30758e-07 12.402 0 13.143 0 19.5C0 25.857 -1.30758e-07 26.598 0.1365 29.1135C0.15749 30.6247 0.43441 32.1214 0.9555 33.54C1.34516 34.5663 1.95025 35.4972 2.73 36.27C3.50648 37.0545 4.44481 37.6601 5.4795 38.0445C6.88851 38.5759 8.38063 38.8532 9.8865 38.8635C12.402 39 13.143 39 19.5 39C25.857 39 26.598 39 29.1135 38.8635C30.6194 38.8532 32.1115 38.5759 33.5205 38.0445C34.5552 37.6601 35.4935 37.0545 36.27 36.27C37.0498 35.4972 37.6548 34.5663 38.0445 33.54C38.5754 32.1241 38.8527 30.6257 38.8635 29.1135C39 26.598 39 25.857 39 19.5C39 13.143 39 12.402 38.8635 9.8865ZM33.9105 25.4865C33.8479 26.6899 33.5911 27.8752 33.15 28.9965C32.7714 29.9319 32.2087 30.7816 31.4951 31.4951C30.7816 32.2087 29.9319 32.7714 28.9965 33.15C27.8646 33.5665 26.6726 33.797 25.467 33.8325C23.9265 33.8325 23.517 33.8325 19.5 33.8325C15.483 33.8325 15.0735 33.8325 13.533 33.8325C12.3274 33.797 11.1355 33.5665 10.0035 33.15C9.0365 32.7907 8.16324 32.2174 7.449 31.473C6.74245 30.7734 6.1968 29.9283 5.85 28.9965C5.43184 27.8657 5.20768 26.6724 5.187 25.467C5.187 23.9265 5.187 23.517 5.187 19.5C5.187 15.483 5.187 15.0735 5.187 13.533C5.20768 12.3276 5.43184 11.1343 5.85 10.0035C6.20935 9.0365 6.78264 8.16324 7.527 7.449C8.22965 6.74627 9.07386 6.20118 10.0035 5.85C11.1355 5.43349 12.3274 5.20301 13.533 5.1675C15.0735 5.1675 15.483 5.1675 19.5 5.1675C23.517 5.1675 23.9265 5.1675 25.467 5.1675C26.6726 5.20301 27.8646 5.43349 28.9965 5.85C29.9635 6.20935 30.8368 6.78264 31.551 7.527C32.2576 8.22656 32.8032 9.07166 33.15 10.0035C33.5665 11.1355 33.797 12.3274 33.8325 13.533C33.8325 15.0735 33.8325 15.483 33.8325 19.5C33.8325 23.517 33.969 23.9265 33.9105 25.467V25.4865ZM30.7905 10.9785C30.5583 10.3486 30.1923 9.7766 29.7176 9.30192C29.2429 8.82723 28.6709 8.46117 28.041 8.229C27.1761 7.92921 26.2652 7.78399 25.35 7.8C23.829 7.8 23.4 7.8 19.5 7.8C15.6 7.8 15.171 7.8 13.65 7.8C12.7301 7.80899 11.8191 7.98064 10.959 8.307C10.3388 8.52863 9.7728 8.87974 9.29874 9.33699C8.82468 9.79424 8.45337 10.3472 8.2095 10.959C7.92631 11.8275 7.78797 12.7366 7.8 13.65C7.8 15.171 7.8 15.6 7.8 19.5C7.8 23.4 7.8 23.829 7.8 25.35C7.81933 26.2688 7.99065 27.1781 8.307 28.041C8.53917 28.6709 8.90523 29.2429 9.37992 29.7176C9.8546 30.1923 10.4266 30.5583 11.0565 30.7905C11.8885 31.0965 12.764 31.2676 13.65 31.2975C15.171 31.2975 15.6 31.2975 19.5 31.2975C23.4 31.2975 23.829 31.2975 25.35 31.2975C26.2699 31.2885 27.1809 31.1169 28.041 30.7905C28.6709 30.5583 29.2429 30.1923 29.7176 29.7176C30.1923 29.2429 30.5583 28.6709 30.7905 28.041C31.1169 27.1809 31.2885 26.2699 31.2975 25.35C31.2975 23.829 31.2975 23.4 31.2975 19.5C31.2975 15.6 31.2975 15.171 31.2975 13.65C31.2981 12.7292 31.1261 11.8165 30.7905 10.959V10.9785ZM19.5 26.949C18.5227 26.949 17.555 26.7562 16.6523 26.3816C15.7497 26.007 14.9298 25.458 14.2396 24.7661C13.5495 24.0741 13.0027 23.2528 12.6304 22.3491C12.2582 21.4455 12.0679 20.4773 12.0705 19.5C12.0705 18.0259 12.5079 16.5849 13.3272 15.3595C14.1466 14.1341 15.3112 13.1794 16.6734 12.6162C18.0357 12.053 19.5344 11.9066 20.9799 12.1956C22.4254 12.4846 23.7527 13.196 24.7936 14.2397C25.8346 15.2834 26.5425 16.6125 26.8277 18.0588C27.113 19.505 26.9627 21.0034 26.3959 22.3641C25.8291 23.7249 24.8713 24.887 23.6437 25.7031C22.4162 26.5193 20.9741 26.9529 19.5 26.949ZM27.3 13.5135C26.8689 13.4679 26.47 13.2643 26.1801 12.9421C25.8902 12.6199 25.7297 12.2017 25.7297 11.7683C25.7297 11.3348 25.8902 10.9166 26.1801 10.5944C26.47 10.2722 26.8689 10.0686 27.3 10.023C27.7311 10.0686 28.13 10.2722 28.4199 10.5944C28.7098 10.9166 28.8703 11.3348 28.8703 11.7683C28.8703 12.2017 28.7098 12.6199 28.4199 12.9421C28.13 13.2643 27.7311 13.4679 27.3 13.5135Z" fill="#0B091B"/>
</svg>
