<svg width="39" height="39" viewBox="0 0 39 39" fill="none" xmlns="http://www.w3.org/2000/svg">
<path d="M28.604 23.4195C28.2122 23.2247 25.6653 22.0562 25.2734 21.8614C24.8816 21.6667 24.4898 21.6667 24.0979 22.0562C23.7061 22.4457 22.9224 23.6142 22.5306 24.0037C22.3347 24.3933 21.9428 24.3933 21.551 24.1985C20.1796 23.6142 18.8081 22.8352 17.6326 21.8614C16.653 20.8876 15.6734 19.7191 14.8898 18.5506C14.6939 18.161 14.8898 17.7715 15.0857 17.5768C15.2816 17.382 15.4775 16.9925 15.8694 16.7978C16.0653 16.603 16.2612 16.2135 16.2612 16.0187C16.4571 15.824 16.4571 15.4345 16.2612 15.2397C16.0653 15.0449 15.0857 12.7079 14.6939 11.7341C14.4979 10.3708 14.1061 10.3708 13.7143 10.3708H12.7347C12.3428 10.3708 11.7551 10.7603 11.5592 10.9551C10.3837 12.1236 9.7959 13.4869 9.7959 15.0449C9.99182 16.7978 10.5796 18.5506 11.7551 20.1086C13.9102 23.2247 16.653 25.7566 19.9836 27.3146C20.9632 27.7041 21.7469 28.0936 22.7265 28.2884C23.7061 28.6779 24.6857 28.6779 25.8612 28.4831C27.2326 28.2884 28.4081 27.3146 29.1918 26.1461C29.5836 25.367 29.5836 24.588 29.3877 23.809L28.604 23.4195ZM33.502 5.69663C25.8612 -1.89888 13.5183 -1.89888 5.87754 5.69663C-0.391836 11.9288 -1.56734 21.4719 2.74285 29.0674L0 39L10.3837 36.2734C13.3224 37.8315 16.4571 38.6105 19.5918 38.6105C30.3673 38.6105 38.9877 30.0412 38.9877 19.3296C39.1836 14.2659 37.0285 9.397 33.502 5.69663ZM28.2122 32.9625C25.6653 34.5206 22.7265 35.4944 19.5918 35.4944C16.653 35.4944 13.9102 34.7154 11.3632 33.3521L10.7755 32.9625L4.70203 34.5206L6.26938 28.6779L5.87754 28.0936C1.17551 20.3034 3.52652 10.5655 11.1673 5.69663C18.8081 0.827716 28.604 3.35955 33.3061 10.7603C38.0081 18.3558 35.853 28.2884 28.2122 32.9625Z" fill="#0B091B"/>
</svg>
